<svg width="26" height="26" viewBox="0 0 26 26" fill="none" xmlns="http://www.w3.org/2000/svg">
<path fill-rule="evenodd" clip-rule="evenodd" d="M11.5706 0H13.7009C14.812 0.0938646 15.8833 0.333004 16.8958 0.698438C17.5869 4.58522 20.6387 7.63609 24.526 8.32594C24.8864 9.3233 25.1238 10.3781 25.2211 11.4716V13.7085C25.1209 14.8374 24.8712 15.9249 24.4911 16.9507C20.6525 17.6467 17.635 20.6464 16.9131 24.4756C15.5757 24.9606 14.1353 25.2258 12.6358 25.2258C11.0962 25.2258 9.61887 24.9462 8.2514 24.4362C7.52322 20.6614 4.56241 17.6998 0.788028 16.9703C0.278977 15.6041 0 14.1281 0 12.5901C0 11.0883 0.265968 9.64576 0.752391 8.30671C4.57601 7.58299 7.57109 4.56996 8.26912 0.737134C9.31276 0.349698 10.4204 0.0971814 11.5706 0ZM14.2527 14.2191L14.2213 14.2379L12.6106 20.2555L11.029 14.347L10.971 14.2501L10.8793 14.1952L4.96797 12.6129L10.9811 11.0034L11.0076 10.9591L12.6106 4.97037L14.2243 10.9992L20.2531 12.6129L14.2527 14.2191Z" fill="white"/>
</svg>
